<svg xmlns="http://www.w3.org/2000/svg" width="636" height="636" viewBox="0 0 60.108 60.108">
  <path fill="#053863"
    d="M44.19350085 27.9597c-4.781-3.249-10.902-1.923-14.115 2.961-2.683 4.081-6.732 4.588-8.303 4.588-5.11 0-8.61-3.596-9.645-7.318h-.007c-.003-.037-.017-.067-.025-.104-.01-.04-.024-.082-.032-.126-.408-1.551-.51-2.293-.51-3.944 0-8.899 9.132-18.805 22.283-18.805 13.465 0 21.168 10.25 23.151 15.947-.035-.1-.067-.199-.102-.303-3.817-11.143-14.383-19.154-26.824-19.154-15.658 0-28.352 12.693-28.352 28.354 0 13.997 10.096 25.978 24.096 25.978 11.168 0 18.677-6.262 22.119-14.892 1.892-4.721.551-10.267-3.734-13.182" />
  <path fill="#e4022e"
    d="M57.16900085 21.7107c-1.656-5.557-9.418-16.499-23.33-16.499-13.15 0-22.282 9.906-22.282 18.805 0 1.651.101 2.393.509 3.944-.174-.678-.261-1.359-.261-2.023 0-9.267 9.28-15.688 18.818-15.688 12.912 0 23.378 10.468 23.378 23.377 0 10.123-5.826 18.881-14.287 23.091l.002.007c10.911-3.952 18.699-14.399 18.699-26.669 0-2.905-.39-5.465-1.246-8.345" />
</svg>